<svg width="1447" height="944" viewBox="0 0 1447 944" fill="none" xmlns="http://www.w3.org/2000/svg">
<g filter="url(#filter0_f_716_17)">
<path d="M522.824 533.382C516.939 492.033 532.36 452.729 531.979 410.965C531.433 351.2 478.693 278.789 520.107 235.695C560.791 193.361 633.826 246.517 692.484 243.95C739.495 241.892 784.861 206.047 829.067 222.172C873.447 238.36 887.65 292.688 920.131 326.989C959.367 368.424 1029.18 388.526 1039.7 444.611C1050.11 500.091 1006 551.515 970.504 595.41C938.734 634.7 892.949 655.925 848.866 680.619C803.197 706.202 760.3 744.278 707.985 742.467C654.827 740.627 604.24 710.748 568.977 670.929C536.252 633.975 529.779 582.251 522.824 533.382Z" fill="url(#paint0_linear_716_17)"/>
</g>
<g filter="url(#filter1_f_716_17)">
<path d="M1254.18 268.465L1220.46 249L1201 282.714L1234.71 302.179L1254.18 268.465ZM1208.4 280.731L1222.45 256.404L1246.78 270.449L1232.73 294.776L1208.4 280.731Z" fill="url(#paint1_linear_716_17)"/>
</g>
<g filter="url(#filter2_f_716_17)">
<path d="M626.031 659.457L668.111 701.6L683.575 644.087L626.031 659.457ZM641.62 663.654L672.141 655.5L663.946 686.001L641.62 663.654Z" fill="url(#paint2_linear_716_17)"/>
</g>
<g opacity="0.5">
<path d="M229.808 936.403C229.808 932.217 233.219 928.806 237.404 928.806C241.59 928.806 245 932.217 245 936.403C245 940.589 241.59 944 237.404 944C233.219 944 229.808 940.615 229.808 936.403ZM191.959 944C196.144 944 199.554 940.589 199.554 936.403C199.554 932.217 196.144 928.806 191.959 928.806C187.773 928.806 184.363 932.217 184.363 936.403C184.363 940.615 187.747 944 191.959 944ZM146.513 944C150.698 944 154.109 940.589 154.109 936.403C154.109 932.217 150.698 928.806 146.513 928.806C142.327 928.806 138.917 932.217 138.917 936.403C138.917 940.615 142.302 944 146.513 944ZM101.067 944C105.253 944 108.663 940.589 108.663 936.403C108.663 932.217 105.253 928.806 101.067 928.806C96.8818 928.806 93.4715 932.217 93.4715 936.403C93.4456 940.615 96.856 944 101.067 944ZM55.5958 944C59.7812 944 63.1916 940.589 63.1916 936.403C63.1916 932.217 59.7812 928.806 55.5958 928.806C51.4103 928.806 48 932.217 48 936.403C48 940.615 51.4103 944 55.5958 944ZM237.404 898.548C241.59 898.548 245 895.138 245 890.952C245 886.766 241.59 883.355 237.404 883.355C233.219 883.355 229.808 886.766 229.808 890.952C229.808 895.163 233.219 898.548 237.404 898.548ZM191.959 898.548C196.144 898.548 199.554 895.138 199.554 890.952C199.554 886.766 196.144 883.355 191.959 883.355C187.773 883.355 184.363 886.766 184.363 890.952C184.363 895.163 187.747 898.548 191.959 898.548ZM146.513 898.548C150.698 898.548 154.109 895.138 154.109 890.952C154.109 886.766 150.698 883.355 146.513 883.355C142.327 883.355 138.917 886.766 138.917 890.952C138.917 895.163 142.302 898.548 146.513 898.548ZM101.067 898.548C105.253 898.548 108.663 895.138 108.663 890.952C108.663 886.766 105.253 883.355 101.067 883.355C96.8818 883.355 93.4715 886.766 93.4715 890.952C93.4456 895.163 96.856 898.548 101.067 898.548ZM55.5958 898.548C59.7812 898.548 63.1916 895.138 63.1916 890.952C63.1916 886.766 59.7812 883.355 55.5958 883.355C51.4103 883.355 48 886.766 48 890.952C48 895.163 51.4103 898.548 55.5958 898.548ZM237.404 853.097C241.59 853.097 245 849.686 245 845.5C245 841.314 241.59 837.903 237.404 837.903C233.219 837.903 229.808 841.314 229.808 845.5C229.808 849.686 233.219 853.097 237.404 853.097ZM191.959 853.097C196.144 853.097 199.554 849.686 199.554 845.5C199.554 841.314 196.144 837.903 191.959 837.903C187.773 837.903 184.363 841.314 184.363 845.5C184.363 849.686 187.747 853.097 191.959 853.097ZM146.513 853.097C150.698 853.097 154.109 849.686 154.109 845.5C154.109 841.314 150.698 837.903 146.513 837.903C142.327 837.903 138.917 841.314 138.917 845.5C138.917 849.686 142.302 853.097 146.513 853.097ZM101.067 853.097C105.253 853.097 108.663 849.686 108.663 845.5C108.663 841.314 105.253 837.903 101.067 837.903C96.8818 837.903 93.4715 841.314 93.4715 845.5C93.4715 849.686 96.856 853.097 101.067 853.097ZM55.5958 853.097C59.7812 853.097 63.1916 849.686 63.1916 845.5C63.1916 841.314 59.7812 837.903 55.5958 837.903C51.4103 837.903 48 841.314 48 845.5C48 849.686 51.4103 853.097 55.5958 853.097ZM237.404 807.645C241.59 807.645 245 804.234 245 800.048C245 795.862 241.59 792.452 237.404 792.452C233.219 792.452 229.808 795.862 229.808 800.048C229.808 804.234 233.219 807.645 237.404 807.645ZM191.959 807.645C196.144 807.645 199.554 804.234 199.554 800.048C199.554 795.862 196.144 792.452 191.959 792.452C187.773 792.452 184.363 795.862 184.363 800.048C184.363 804.234 187.747 807.645 191.959 807.645ZM146.513 807.645C150.698 807.645 154.109 804.234 154.109 800.048C154.109 795.862 150.698 792.452 146.513 792.452C142.327 792.452 138.917 795.862 138.917 800.048C138.917 804.234 142.302 807.645 146.513 807.645ZM101.067 807.645C105.253 807.645 108.663 804.234 108.663 800.048C108.663 795.862 105.253 792.452 101.067 792.452C96.8818 792.452 93.4715 795.862 93.4715 800.048C93.4456 804.234 96.856 807.645 101.067 807.645ZM55.5958 807.645C59.7812 807.645 63.1916 804.234 63.1916 800.048C63.1916 795.862 59.7812 792.452 55.5958 792.452C51.4103 792.452 48 795.862 48 800.048C48 804.234 51.4103 807.645 55.5958 807.645ZM237.404 762.194C241.59 762.194 245 758.783 245 754.597C245 750.411 241.59 747 237.404 747C233.219 747 229.808 750.411 229.808 754.597C229.808 758.783 233.219 762.194 237.404 762.194ZM191.959 762.194C196.144 762.194 199.554 758.783 199.554 754.597C199.554 750.411 196.144 747 191.959 747C187.773 747 184.363 750.411 184.363 754.597C184.363 758.783 187.747 762.194 191.959 762.194ZM146.513 762.194C150.698 762.194 154.109 758.783 154.109 754.597C154.109 750.411 150.698 747 146.513 747C142.327 747 138.917 750.411 138.917 754.597C138.917 758.783 142.302 762.194 146.513 762.194ZM101.067 762.194C105.253 762.194 108.663 758.783 108.663 754.597C108.663 750.411 105.253 747 101.067 747C96.8818 747 93.4715 750.411 93.4715 754.597C93.4456 758.783 96.856 762.194 101.067 762.194ZM55.5958 762.194C59.7812 762.194 63.1916 758.783 63.1916 754.597C63.1916 750.411 59.7812 747 55.5958 747C51.4103 747 48 750.411 48 754.597C48 758.783 51.4103 762.194 55.5958 762.194Z" fill="url(#paint3_linear_716_17)"/>
<path d="M229.808 936.403C229.808 932.217 233.219 928.806 237.404 928.806C241.59 928.806 245 932.217 245 936.403C245 940.589 241.59 944 237.404 944C233.219 944 229.808 940.615 229.808 936.403ZM191.959 944C196.144 944 199.554 940.589 199.554 936.403C199.554 932.217 196.144 928.806 191.959 928.806C187.773 928.806 184.363 932.217 184.363 936.403C184.363 940.615 187.747 944 191.959 944ZM146.513 944C150.698 944 154.109 940.589 154.109 936.403C154.109 932.217 150.698 928.806 146.513 928.806C142.327 928.806 138.917 932.217 138.917 936.403C138.917 940.615 142.302 944 146.513 944ZM101.067 944C105.253 944 108.663 940.589 108.663 936.403C108.663 932.217 105.253 928.806 101.067 928.806C96.8818 928.806 93.4715 932.217 93.4715 936.403C93.4456 940.615 96.856 944 101.067 944ZM55.5958 944C59.7812 944 63.1916 940.589 63.1916 936.403C63.1916 932.217 59.7812 928.806 55.5958 928.806C51.4103 928.806 48 932.217 48 936.403C48 940.615 51.4103 944 55.5958 944ZM237.404 898.548C241.59 898.548 245 895.138 245 890.952C245 886.766 241.59 883.355 237.404 883.355C233.219 883.355 229.808 886.766 229.808 890.952C229.808 895.163 233.219 898.548 237.404 898.548ZM191.959 898.548C196.144 898.548 199.554 895.138 199.554 890.952C199.554 886.766 196.144 883.355 191.959 883.355C187.773 883.355 184.363 886.766 184.363 890.952C184.363 895.163 187.747 898.548 191.959 898.548ZM146.513 898.548C150.698 898.548 154.109 895.138 154.109 890.952C154.109 886.766 150.698 883.355 146.513 883.355C142.327 883.355 138.917 886.766 138.917 890.952C138.917 895.163 142.302 898.548 146.513 898.548ZM101.067 898.548C105.253 898.548 108.663 895.138 108.663 890.952C108.663 886.766 105.253 883.355 101.067 883.355C96.8818 883.355 93.4715 886.766 93.4715 890.952C93.4456 895.163 96.856 898.548 101.067 898.548ZM55.5958 898.548C59.7812 898.548 63.1916 895.138 63.1916 890.952C63.1916 886.766 59.7812 883.355 55.5958 883.355C51.4103 883.355 48 886.766 48 890.952C48 895.163 51.4103 898.548 55.5958 898.548ZM237.404 853.097C241.59 853.097 245 849.686 245 845.5C245 841.314 241.59 837.903 237.404 837.903C233.219 837.903 229.808 841.314 229.808 845.5C229.808 849.686 233.219 853.097 237.404 853.097ZM191.959 853.097C196.144 853.097 199.554 849.686 199.554 845.5C199.554 841.314 196.144 837.903 191.959 837.903C187.773 837.903 184.363 841.314 184.363 845.5C184.363 849.686 187.747 853.097 191.959 853.097ZM146.513 853.097C150.698 853.097 154.109 849.686 154.109 845.5C154.109 841.314 150.698 837.903 146.513 837.903C142.327 837.903 138.917 841.314 138.917 845.5C138.917 849.686 142.302 853.097 146.513 853.097ZM101.067 853.097C105.253 853.097 108.663 849.686 108.663 845.5C108.663 841.314 105.253 837.903 101.067 837.903C96.8818 837.903 93.4715 841.314 93.4715 845.5C93.4715 849.686 96.856 853.097 101.067 853.097ZM55.5958 853.097C59.7812 853.097 63.1916 849.686 63.1916 845.5C63.1916 841.314 59.7812 837.903 55.5958 837.903C51.4103 837.903 48 841.314 48 845.5C48 849.686 51.4103 853.097 55.5958 853.097ZM237.404 807.645C241.59 807.645 245 804.234 245 800.048C245 795.862 241.59 792.452 237.404 792.452C233.219 792.452 229.808 795.862 229.808 800.048C229.808 804.234 233.219 807.645 237.404 807.645ZM191.959 807.645C196.144 807.645 199.554 804.234 199.554 800.048C199.554 795.862 196.144 792.452 191.959 792.452C187.773 792.452 184.363 795.862 184.363 800.048C184.363 804.234 187.747 807.645 191.959 807.645ZM146.513 807.645C150.698 807.645 154.109 804.234 154.109 800.048C154.109 795.862 150.698 792.452 146.513 792.452C142.327 792.452 138.917 795.862 138.917 800.048C138.917 804.234 142.302 807.645 146.513 807.645ZM101.067 807.645C105.253 807.645 108.663 804.234 108.663 800.048C108.663 795.862 105.253 792.452 101.067 792.452C96.8818 792.452 93.4715 795.862 93.4715 800.048C93.4456 804.234 96.856 807.645 101.067 807.645ZM55.5958 807.645C59.7812 807.645 63.1916 804.234 63.1916 800.048C63.1916 795.862 59.7812 792.452 55.5958 792.452C51.4103 792.452 48 795.862 48 800.048C48 804.234 51.4103 807.645 55.5958 807.645ZM237.404 762.194C241.59 762.194 245 758.783 245 754.597C245 750.411 241.59 747 237.404 747C233.219 747 229.808 750.411 229.808 754.597C229.808 758.783 233.219 762.194 237.404 762.194ZM191.959 762.194C196.144 762.194 199.554 758.783 199.554 754.597C199.554 750.411 196.144 747 191.959 747C187.773 747 184.363 750.411 184.363 754.597C184.363 758.783 187.747 762.194 191.959 762.194ZM146.513 762.194C150.698 762.194 154.109 758.783 154.109 754.597C154.109 750.411 150.698 747 146.513 747C142.327 747 138.917 750.411 138.917 754.597C138.917 758.783 142.302 762.194 146.513 762.194ZM101.067 762.194C105.253 762.194 108.663 758.783 108.663 754.597C108.663 750.411 105.253 747 101.067 747C96.8818 747 93.4715 750.411 93.4715 754.597C93.4456 758.783 96.856 762.194 101.067 762.194ZM55.5958 762.194C59.7812 762.194 63.1916 758.783 63.1916 754.597C63.1916 750.411 59.7812 747 55.5958 747C51.4103 747 48 750.411 48 754.597C48 758.783 51.4103 762.194 55.5958 762.194Z" fill="url(#paint4_linear_716_17)"/>
</g>
<path d="M528.709 30.5797C524.141 30.5797 520.418 26.8577 520.418 22.2898C520.418 17.722 524.141 14 528.709 14C533.278 14 537 17.722 537 22.2898C537 26.8577 533.306 30.5797 528.709 30.5797ZM537 71.8878C537 67.32 533.278 63.598 528.709 63.598C524.141 63.598 520.418 67.32 520.418 71.8878C520.418 76.4557 524.141 80.1777 528.709 80.1777C533.306 80.1777 537 76.4839 537 71.8878ZM537 121.486C537 116.918 533.278 113.196 528.709 113.196C524.141 113.196 520.418 116.918 520.418 121.486C520.418 126.054 524.141 129.776 528.709 129.776C533.306 129.776 537 126.082 537 121.486ZM537 171.084C537 166.516 533.278 162.794 528.709 162.794C524.141 162.794 520.418 166.516 520.418 171.084C520.418 175.652 524.141 179.374 528.709 179.374C533.306 179.402 537 175.68 537 171.084ZM537 220.71C537 216.142 533.278 212.42 528.709 212.42C524.141 212.42 520.418 216.142 520.418 220.71C520.418 225.278 524.141 229 528.709 229C533.306 229 537 225.278 537 220.71ZM487.395 22.2898C487.395 17.722 483.673 14 479.105 14C474.536 14 470.814 17.722 470.814 22.2898C470.814 26.8577 474.536 30.5797 479.105 30.5797C483.701 30.5797 487.395 26.8577 487.395 22.2898ZM487.395 71.8878C487.395 67.32 483.673 63.598 479.105 63.598C474.536 63.598 470.814 67.32 470.814 71.8878C470.814 76.4557 474.536 80.1777 479.105 80.1777C483.701 80.1777 487.395 76.4839 487.395 71.8878ZM487.395 121.486C487.395 116.918 483.673 113.196 479.105 113.196C474.536 113.196 470.814 116.918 470.814 121.486C470.814 126.054 474.536 129.776 479.105 129.776C483.701 129.776 487.395 126.082 487.395 121.486ZM487.395 171.084C487.395 166.516 483.673 162.794 479.105 162.794C474.536 162.794 470.814 166.516 470.814 171.084C470.814 175.652 474.536 179.374 479.105 179.374C483.701 179.402 487.395 175.68 487.395 171.084ZM487.395 220.71C487.395 216.142 483.673 212.42 479.105 212.42C474.536 212.42 470.814 216.142 470.814 220.71C470.814 225.278 474.536 229 479.105 229C483.701 229 487.395 225.278 487.395 220.71ZM437.791 22.2898C437.791 17.722 434.068 14 429.5 14C424.932 14 421.209 17.722 421.209 22.2898C421.209 26.8577 424.932 30.5797 429.5 30.5797C434.068 30.5797 437.791 26.8577 437.791 22.2898ZM437.791 71.8878C437.791 67.32 434.068 63.598 429.5 63.598C424.932 63.598 421.209 67.32 421.209 71.8878C421.209 76.4557 424.932 80.1777 429.5 80.1777C434.068 80.1777 437.791 76.4839 437.791 71.8878ZM437.791 121.486C437.791 116.918 434.068 113.196 429.5 113.196C424.932 113.196 421.209 116.918 421.209 121.486C421.209 126.054 424.932 129.776 429.5 129.776C434.068 129.776 437.791 126.082 437.791 121.486ZM437.791 171.084C437.791 166.516 434.068 162.794 429.5 162.794C424.932 162.794 421.209 166.516 421.209 171.084C421.209 175.652 424.932 179.374 429.5 179.374C434.068 179.374 437.791 175.68 437.791 171.084ZM437.791 220.71C437.791 216.142 434.068 212.42 429.5 212.42C424.932 212.42 421.209 216.142 421.209 220.71C421.209 225.278 424.932 229 429.5 229C434.068 229 437.791 225.278 437.791 220.71ZM388.186 22.2898C388.186 17.722 384.464 14 379.895 14C375.327 14 371.605 17.722 371.605 22.2898C371.605 26.8577 375.327 30.5797 379.895 30.5797C384.464 30.5797 388.186 26.8577 388.186 22.2898ZM388.186 71.8878C388.186 67.32 384.464 63.598 379.895 63.598C375.327 63.598 371.605 67.32 371.605 71.8878C371.605 76.4557 375.327 80.1777 379.895 80.1777C384.464 80.1777 388.186 76.4839 388.186 71.8878ZM388.186 121.486C388.186 116.918 384.464 113.196 379.895 113.196C375.327 113.196 371.605 116.918 371.605 121.486C371.605 126.054 375.327 129.776 379.895 129.776C384.464 129.776 388.186 126.082 388.186 121.486ZM388.186 171.084C388.186 166.516 384.464 162.794 379.895 162.794C375.327 162.794 371.605 166.516 371.605 171.084C371.605 175.652 375.327 179.374 379.895 179.374C384.464 179.402 388.186 175.68 388.186 171.084ZM388.186 220.71C388.186 216.142 384.464 212.42 379.895 212.42C375.327 212.42 371.605 216.142 371.605 220.71C371.605 225.278 375.327 229 379.895 229C384.464 229 388.186 225.278 388.186 220.71ZM338.582 22.2898C338.582 17.722 334.859 14 330.291 14C325.722 14 322 17.722 322 22.2898C322 26.8577 325.722 30.5797 330.291 30.5797C334.859 30.5797 338.582 26.8577 338.582 22.2898ZM338.582 71.8878C338.582 67.32 334.859 63.598 330.291 63.598C325.722 63.598 322 67.32 322 71.8878C322 76.4557 325.722 80.1777 330.291 80.1777C334.859 80.1777 338.582 76.4839 338.582 71.8878ZM338.582 121.486C338.582 116.918 334.859 113.196 330.291 113.196C325.722 113.196 322 116.918 322 121.486C322 126.054 325.722 129.776 330.291 129.776C334.859 129.776 338.582 126.082 338.582 121.486ZM338.582 171.084C338.582 166.516 334.859 162.794 330.291 162.794C325.722 162.794 322 166.516 322 171.084C322 175.652 325.722 179.374 330.291 179.374C334.859 179.402 338.582 175.68 338.582 171.084ZM338.582 220.71C338.582 216.142 334.859 212.42 330.291 212.42C325.722 212.42 322 216.142 322 220.71C322 225.278 325.722 229 330.291 229C334.859 229 338.582 225.278 338.582 220.71Z" fill="url(#paint5_linear_716_17)"/>
<path d="M528.709 30.5797C524.141 30.5797 520.418 26.8577 520.418 22.2898C520.418 17.722 524.141 14 528.709 14C533.278 14 537 17.722 537 22.2898C537 26.8577 533.306 30.5797 528.709 30.5797ZM537 71.8878C537 67.32 533.278 63.598 528.709 63.598C524.141 63.598 520.418 67.32 520.418 71.8878C520.418 76.4557 524.141 80.1777 528.709 80.1777C533.306 80.1777 537 76.4839 537 71.8878ZM537 121.486C537 116.918 533.278 113.196 528.709 113.196C524.141 113.196 520.418 116.918 520.418 121.486C520.418 126.054 524.141 129.776 528.709 129.776C533.306 129.776 537 126.082 537 121.486ZM537 171.084C537 166.516 533.278 162.794 528.709 162.794C524.141 162.794 520.418 166.516 520.418 171.084C520.418 175.652 524.141 179.374 528.709 179.374C533.306 179.402 537 175.68 537 171.084ZM537 220.71C537 216.142 533.278 212.42 528.709 212.42C524.141 212.42 520.418 216.142 520.418 220.71C520.418 225.278 524.141 229 528.709 229C533.306 229 537 225.278 537 220.71ZM487.395 22.2898C487.395 17.722 483.673 14 479.105 14C474.536 14 470.814 17.722 470.814 22.2898C470.814 26.8577 474.536 30.5797 479.105 30.5797C483.701 30.5797 487.395 26.8577 487.395 22.2898ZM487.395 71.8878C487.395 67.32 483.673 63.598 479.105 63.598C474.536 63.598 470.814 67.32 470.814 71.8878C470.814 76.4557 474.536 80.1777 479.105 80.1777C483.701 80.1777 487.395 76.4839 487.395 71.8878ZM487.395 121.486C487.395 116.918 483.673 113.196 479.105 113.196C474.536 113.196 470.814 116.918 470.814 121.486C470.814 126.054 474.536 129.776 479.105 129.776C483.701 129.776 487.395 126.082 487.395 121.486ZM487.395 171.084C487.395 166.516 483.673 162.794 479.105 162.794C474.536 162.794 470.814 166.516 470.814 171.084C470.814 175.652 474.536 179.374 479.105 179.374C483.701 179.402 487.395 175.68 487.395 171.084ZM487.395 220.71C487.395 216.142 483.673 212.42 479.105 212.42C474.536 212.42 470.814 216.142 470.814 220.71C470.814 225.278 474.536 229 479.105 229C483.701 229 487.395 225.278 487.395 220.71ZM437.791 22.2898C437.791 17.722 434.068 14 429.5 14C424.932 14 421.209 17.722 421.209 22.2898C421.209 26.8577 424.932 30.5797 429.5 30.5797C434.068 30.5797 437.791 26.8577 437.791 22.2898ZM437.791 71.8878C437.791 67.32 434.068 63.598 429.5 63.598C424.932 63.598 421.209 67.32 421.209 71.8878C421.209 76.4557 424.932 80.1777 429.5 80.1777C434.068 80.1777 437.791 76.4839 437.791 71.8878ZM437.791 121.486C437.791 116.918 434.068 113.196 429.5 113.196C424.932 113.196 421.209 116.918 421.209 121.486C421.209 126.054 424.932 129.776 429.5 129.776C434.068 129.776 437.791 126.082 437.791 121.486ZM437.791 171.084C437.791 166.516 434.068 162.794 429.5 162.794C424.932 162.794 421.209 166.516 421.209 171.084C421.209 175.652 424.932 179.374 429.5 179.374C434.068 179.374 437.791 175.68 437.791 171.084ZM437.791 220.71C437.791 216.142 434.068 212.42 429.5 212.42C424.932 212.42 421.209 216.142 421.209 220.71C421.209 225.278 424.932 229 429.5 229C434.068 229 437.791 225.278 437.791 220.71ZM388.186 22.2898C388.186 17.722 384.464 14 379.895 14C375.327 14 371.605 17.722 371.605 22.2898C371.605 26.8577 375.327 30.5797 379.895 30.5797C384.464 30.5797 388.186 26.8577 388.186 22.2898ZM388.186 71.8878C388.186 67.32 384.464 63.598 379.895 63.598C375.327 63.598 371.605 67.32 371.605 71.8878C371.605 76.4557 375.327 80.1777 379.895 80.1777C384.464 80.1777 388.186 76.4839 388.186 71.8878ZM388.186 121.486C388.186 116.918 384.464 113.196 379.895 113.196C375.327 113.196 371.605 116.918 371.605 121.486C371.605 126.054 375.327 129.776 379.895 129.776C384.464 129.776 388.186 126.082 388.186 121.486ZM388.186 171.084C388.186 166.516 384.464 162.794 379.895 162.794C375.327 162.794 371.605 166.516 371.605 171.084C371.605 175.652 375.327 179.374 379.895 179.374C384.464 179.402 388.186 175.68 388.186 171.084ZM388.186 220.71C388.186 216.142 384.464 212.42 379.895 212.42C375.327 212.42 371.605 216.142 371.605 220.71C371.605 225.278 375.327 229 379.895 229C384.464 229 388.186 225.278 388.186 220.71ZM338.582 22.2898C338.582 17.722 334.859 14 330.291 14C325.722 14 322 17.722 322 22.2898C322 26.8577 325.722 30.5797 330.291 30.5797C334.859 30.5797 338.582 26.8577 338.582 22.2898ZM338.582 71.8878C338.582 67.32 334.859 63.598 330.291 63.598C325.722 63.598 322 67.32 322 71.8878C322 76.4557 325.722 80.1777 330.291 80.1777C334.859 80.1777 338.582 76.4839 338.582 71.8878ZM338.582 121.486C338.582 116.918 334.859 113.196 330.291 113.196C325.722 113.196 322 116.918 322 121.486C322 126.054 325.722 129.776 330.291 129.776C334.859 129.776 338.582 126.082 338.582 121.486ZM338.582 171.084C338.582 166.516 334.859 162.794 330.291 162.794C325.722 162.794 322 166.516 322 171.084C322 175.652 325.722 179.374 330.291 179.374C334.859 179.402 338.582 175.68 338.582 171.084ZM338.582 220.71C338.582 216.142 334.859 212.42 330.291 212.42C325.722 212.42 322 216.142 322 220.71C322 225.278 325.722 229 330.291 229C334.859 229 338.582 225.278 338.582 220.71Z" fill="url(#paint6_linear_716_17)"/>
<g opacity="0.2">
<path d="M1347.71 675.58C1343.14 675.58 1339.42 671.858 1339.42 667.29C1339.42 662.722 1343.14 659 1347.71 659C1352.28 659 1356 662.722 1356 667.29C1356 671.858 1352.31 675.58 1347.71 675.58ZM1356 716.888C1356 712.32 1352.28 708.598 1347.71 708.598C1343.14 708.598 1339.42 712.32 1339.42 716.888C1339.42 721.456 1343.14 725.178 1347.71 725.178C1352.31 725.178 1356 721.484 1356 716.888ZM1356 766.486C1356 761.918 1352.28 758.196 1347.71 758.196C1343.14 758.196 1339.42 761.918 1339.42 766.486C1339.42 771.054 1343.14 774.776 1347.71 774.776C1352.31 774.776 1356 771.082 1356 766.486ZM1356 816.084C1356 811.516 1352.28 807.794 1347.71 807.794C1343.14 807.794 1339.42 811.516 1339.42 816.084C1339.42 820.652 1343.14 824.374 1347.71 824.374C1352.31 824.402 1356 820.68 1356 816.084ZM1356 865.71C1356 861.142 1352.28 857.42 1347.71 857.42C1343.14 857.42 1339.42 861.142 1339.42 865.71C1339.42 870.278 1343.14 874 1347.71 874C1352.31 874 1356 870.278 1356 865.71ZM1306.4 667.29C1306.4 662.722 1302.67 659 1298.1 659C1293.54 659 1289.81 662.722 1289.81 667.29C1289.81 671.858 1293.54 675.58 1298.1 675.58C1302.7 675.58 1306.4 671.858 1306.4 667.29ZM1306.4 716.888C1306.4 712.32 1302.67 708.598 1298.1 708.598C1293.54 708.598 1289.81 712.32 1289.81 716.888C1289.81 721.456 1293.54 725.178 1298.1 725.178C1302.7 725.178 1306.4 721.484 1306.4 716.888ZM1306.4 766.486C1306.4 761.918 1302.67 758.196 1298.1 758.196C1293.54 758.196 1289.81 761.918 1289.81 766.486C1289.81 771.054 1293.54 774.776 1298.1 774.776C1302.7 774.776 1306.4 771.082 1306.4 766.486ZM1306.4 816.084C1306.4 811.516 1302.67 807.794 1298.1 807.794C1293.54 807.794 1289.81 811.516 1289.81 816.084C1289.81 820.652 1293.54 824.374 1298.1 824.374C1302.7 824.402 1306.4 820.68 1306.4 816.084ZM1306.4 865.71C1306.4 861.142 1302.67 857.42 1298.1 857.42C1293.54 857.42 1289.81 861.142 1289.81 865.71C1289.81 870.278 1293.54 874 1298.1 874C1302.7 874 1306.4 870.278 1306.4 865.71ZM1256.79 667.29C1256.79 662.722 1253.07 659 1248.5 659C1243.93 659 1240.21 662.722 1240.21 667.29C1240.21 671.858 1243.93 675.58 1248.5 675.58C1253.07 675.58 1256.79 671.858 1256.79 667.29ZM1256.79 716.888C1256.79 712.32 1253.07 708.598 1248.5 708.598C1243.93 708.598 1240.21 712.32 1240.21 716.888C1240.21 721.456 1243.93 725.178 1248.5 725.178C1253.07 725.178 1256.79 721.484 1256.79 716.888ZM1256.79 766.486C1256.79 761.918 1253.07 758.196 1248.5 758.196C1243.93 758.196 1240.21 761.918 1240.21 766.486C1240.21 771.054 1243.93 774.776 1248.5 774.776C1253.07 774.776 1256.79 771.082 1256.79 766.486ZM1256.79 816.084C1256.79 811.516 1253.07 807.794 1248.5 807.794C1243.93 807.794 1240.21 811.516 1240.21 816.084C1240.21 820.652 1243.93 824.374 1248.5 824.374C1253.07 824.374 1256.79 820.68 1256.79 816.084ZM1256.79 865.71C1256.79 861.142 1253.07 857.42 1248.5 857.42C1243.93 857.42 1240.21 861.142 1240.21 865.71C1240.21 870.278 1243.93 874 1248.5 874C1253.07 874 1256.79 870.278 1256.79 865.71ZM1207.19 667.29C1207.19 662.722 1203.46 659 1198.9 659C1194.33 659 1190.6 662.722 1190.6 667.29C1190.6 671.858 1194.33 675.58 1198.9 675.58C1203.46 675.58 1207.19 671.858 1207.19 667.29ZM1207.19 716.888C1207.19 712.32 1203.46 708.598 1198.9 708.598C1194.33 708.598 1190.6 712.32 1190.6 716.888C1190.6 721.456 1194.33 725.178 1198.9 725.178C1203.46 725.178 1207.19 721.484 1207.19 716.888ZM1207.19 766.486C1207.19 761.918 1203.46 758.196 1198.9 758.196C1194.33 758.196 1190.6 761.918 1190.6 766.486C1190.6 771.054 1194.33 774.776 1198.9 774.776C1203.46 774.776 1207.19 771.082 1207.19 766.486ZM1207.19 816.084C1207.19 811.516 1203.46 807.794 1198.9 807.794C1194.33 807.794 1190.6 811.516 1190.6 816.084C1190.6 820.652 1194.33 824.374 1198.9 824.374C1203.46 824.402 1207.19 820.68 1207.19 816.084ZM1207.19 865.71C1207.19 861.142 1203.46 857.42 1198.9 857.42C1194.33 857.42 1190.6 861.142 1190.6 865.71C1190.6 870.278 1194.33 874 1198.9 874C1203.46 874 1207.19 870.278 1207.19 865.71ZM1157.58 667.29C1157.58 662.722 1153.86 659 1149.29 659C1144.72 659 1141 662.722 1141 667.29C1141 671.858 1144.72 675.58 1149.29 675.58C1153.86 675.58 1157.58 671.858 1157.58 667.29ZM1157.58 716.888C1157.58 712.32 1153.86 708.598 1149.29 708.598C1144.72 708.598 1141 712.32 1141 716.888C1141 721.456 1144.72 725.178 1149.29 725.178C1153.86 725.178 1157.58 721.484 1157.58 716.888ZM1157.58 766.486C1157.58 761.918 1153.86 758.196 1149.29 758.196C1144.72 758.196 1141 761.918 1141 766.486C1141 771.054 1144.72 774.776 1149.29 774.776C1153.86 774.776 1157.58 771.082 1157.58 766.486ZM1157.58 816.084C1157.58 811.516 1153.86 807.794 1149.29 807.794C1144.72 807.794 1141 811.516 1141 816.084C1141 820.652 1144.72 824.374 1149.29 824.374C1153.86 824.402 1157.58 820.68 1157.58 816.084ZM1157.58 865.71C1157.58 861.142 1153.86 857.42 1149.29 857.42C1144.72 857.42 1141 861.142 1141 865.71C1141 870.278 1144.72 874 1149.29 874C1153.86 874 1157.58 870.278 1157.58 865.71Z" fill="url(#paint7_linear_716_17)"/>
<path d="M1347.71 675.58C1343.14 675.58 1339.42 671.858 1339.42 667.29C1339.42 662.722 1343.14 659 1347.71 659C1352.28 659 1356 662.722 1356 667.29C1356 671.858 1352.31 675.58 1347.71 675.58ZM1356 716.888C1356 712.32 1352.28 708.598 1347.71 708.598C1343.14 708.598 1339.42 712.32 1339.42 716.888C1339.42 721.456 1343.14 725.178 1347.71 725.178C1352.31 725.178 1356 721.484 1356 716.888ZM1356 766.486C1356 761.918 1352.28 758.196 1347.71 758.196C1343.14 758.196 1339.42 761.918 1339.42 766.486C1339.42 771.054 1343.14 774.776 1347.71 774.776C1352.31 774.776 1356 771.082 1356 766.486ZM1356 816.084C1356 811.516 1352.28 807.794 1347.71 807.794C1343.14 807.794 1339.42 811.516 1339.42 816.084C1339.42 820.652 1343.14 824.374 1347.71 824.374C1352.31 824.402 1356 820.68 1356 816.084ZM1356 865.71C1356 861.142 1352.28 857.42 1347.71 857.42C1343.14 857.42 1339.42 861.142 1339.42 865.71C1339.42 870.278 1343.14 874 1347.71 874C1352.31 874 1356 870.278 1356 865.71ZM1306.4 667.29C1306.4 662.722 1302.67 659 1298.1 659C1293.54 659 1289.81 662.722 1289.81 667.29C1289.81 671.858 1293.54 675.58 1298.1 675.58C1302.7 675.58 1306.4 671.858 1306.4 667.29ZM1306.4 716.888C1306.4 712.32 1302.67 708.598 1298.1 708.598C1293.54 708.598 1289.81 712.32 1289.81 716.888C1289.81 721.456 1293.54 725.178 1298.1 725.178C1302.7 725.178 1306.4 721.484 1306.4 716.888ZM1306.4 766.486C1306.4 761.918 1302.67 758.196 1298.1 758.196C1293.54 758.196 1289.81 761.918 1289.81 766.486C1289.81 771.054 1293.54 774.776 1298.1 774.776C1302.7 774.776 1306.4 771.082 1306.4 766.486ZM1306.4 816.084C1306.4 811.516 1302.67 807.794 1298.1 807.794C1293.54 807.794 1289.81 811.516 1289.81 816.084C1289.81 820.652 1293.54 824.374 1298.1 824.374C1302.7 824.402 1306.4 820.68 1306.4 816.084ZM1306.4 865.71C1306.4 861.142 1302.67 857.42 1298.1 857.42C1293.54 857.42 1289.81 861.142 1289.81 865.71C1289.81 870.278 1293.54 874 1298.1 874C1302.7 874 1306.4 870.278 1306.4 865.71ZM1256.79 667.29C1256.79 662.722 1253.07 659 1248.5 659C1243.93 659 1240.21 662.722 1240.21 667.29C1240.21 671.858 1243.93 675.58 1248.5 675.58C1253.07 675.58 1256.79 671.858 1256.79 667.29ZM1256.79 716.888C1256.79 712.32 1253.07 708.598 1248.5 708.598C1243.93 708.598 1240.21 712.32 1240.21 716.888C1240.21 721.456 1243.93 725.178 1248.5 725.178C1253.07 725.178 1256.79 721.484 1256.79 716.888ZM1256.79 766.486C1256.79 761.918 1253.07 758.196 1248.5 758.196C1243.93 758.196 1240.21 761.918 1240.21 766.486C1240.21 771.054 1243.93 774.776 1248.5 774.776C1253.07 774.776 1256.79 771.082 1256.79 766.486ZM1256.79 816.084C1256.79 811.516 1253.07 807.794 1248.5 807.794C1243.93 807.794 1240.21 811.516 1240.21 816.084C1240.21 820.652 1243.93 824.374 1248.5 824.374C1253.07 824.374 1256.79 820.68 1256.79 816.084ZM1256.79 865.71C1256.79 861.142 1253.07 857.42 1248.5 857.42C1243.93 857.42 1240.21 861.142 1240.21 865.71C1240.21 870.278 1243.93 874 1248.5 874C1253.07 874 1256.79 870.278 1256.79 865.71ZM1207.19 667.29C1207.19 662.722 1203.46 659 1198.9 659C1194.33 659 1190.6 662.722 1190.6 667.29C1190.6 671.858 1194.33 675.58 1198.9 675.58C1203.46 675.58 1207.19 671.858 1207.19 667.29ZM1207.19 716.888C1207.19 712.32 1203.46 708.598 1198.9 708.598C1194.33 708.598 1190.6 712.32 1190.6 716.888C1190.6 721.456 1194.33 725.178 1198.9 725.178C1203.46 725.178 1207.19 721.484 1207.19 716.888ZM1207.19 766.486C1207.19 761.918 1203.46 758.196 1198.9 758.196C1194.33 758.196 1190.6 761.918 1190.6 766.486C1190.6 771.054 1194.33 774.776 1198.9 774.776C1203.46 774.776 1207.19 771.082 1207.19 766.486ZM1207.19 816.084C1207.19 811.516 1203.46 807.794 1198.9 807.794C1194.33 807.794 1190.6 811.516 1190.6 816.084C1190.6 820.652 1194.33 824.374 1198.9 824.374C1203.46 824.402 1207.19 820.68 1207.19 816.084ZM1207.19 865.71C1207.19 861.142 1203.46 857.42 1198.9 857.42C1194.33 857.42 1190.6 861.142 1190.6 865.71C1190.6 870.278 1194.33 874 1198.9 874C1203.46 874 1207.19 870.278 1207.19 865.71ZM1157.58 667.29C1157.58 662.722 1153.86 659 1149.29 659C1144.72 659 1141 662.722 1141 667.29C1141 671.858 1144.72 675.58 1149.29 675.58C1153.86 675.58 1157.58 671.858 1157.58 667.29ZM1157.58 716.888C1157.58 712.32 1153.86 708.598 1149.29 708.598C1144.72 708.598 1141 712.32 1141 716.888C1141 721.456 1144.72 725.178 1149.29 725.178C1153.86 725.178 1157.58 721.484 1157.58 716.888ZM1157.58 766.486C1157.58 761.918 1153.86 758.196 1149.29 758.196C1144.72 758.196 1141 761.918 1141 766.486C1141 771.054 1144.72 774.776 1149.29 774.776C1153.86 774.776 1157.58 771.082 1157.58 766.486ZM1157.58 816.084C1157.58 811.516 1153.86 807.794 1149.29 807.794C1144.72 807.794 1141 811.516 1141 816.084C1141 820.652 1144.72 824.374 1149.29 824.374C1153.86 824.402 1157.58 820.68 1157.58 816.084ZM1157.58 865.71C1157.58 861.142 1153.86 857.42 1149.29 857.42C1144.72 857.42 1141 861.142 1141 865.71C1141 870.278 1144.72 874 1149.29 874C1153.86 874 1157.58 870.278 1157.58 865.71Z" fill="url(#paint8_linear_716_17)"/>
</g>
<g opacity="0.2">
<path d="M1099.71 460.58C1095.14 460.58 1091.42 456.858 1091.42 452.29C1091.42 447.722 1095.14 444 1099.71 444C1104.28 444 1108 447.722 1108 452.29C1108 456.858 1104.31 460.58 1099.71 460.58ZM1108 501.888C1108 497.32 1104.28 493.598 1099.71 493.598C1095.14 493.598 1091.42 497.32 1091.42 501.888C1091.42 506.456 1095.14 510.178 1099.71 510.178C1104.31 510.178 1108 506.484 1108 501.888ZM1108 551.486C1108 546.918 1104.28 543.196 1099.71 543.196C1095.14 543.196 1091.42 546.918 1091.42 551.486C1091.42 556.054 1095.14 559.776 1099.71 559.776C1104.31 559.776 1108 556.082 1108 551.486ZM1108 601.084C1108 596.516 1104.28 592.794 1099.71 592.794C1095.14 592.794 1091.42 596.516 1091.42 601.084C1091.42 605.652 1095.14 609.374 1099.71 609.374C1104.31 609.402 1108 605.68 1108 601.084ZM1108 650.71C1108 646.142 1104.28 642.42 1099.71 642.42C1095.14 642.42 1091.42 646.142 1091.42 650.71C1091.42 655.278 1095.14 659 1099.71 659C1104.31 659 1108 655.278 1108 650.71ZM1058.4 452.29C1058.4 447.722 1054.67 444 1050.1 444C1045.54 444 1041.81 447.722 1041.81 452.29C1041.81 456.858 1045.54 460.58 1050.1 460.58C1054.7 460.58 1058.4 456.858 1058.4 452.29ZM1058.4 501.888C1058.4 497.32 1054.67 493.598 1050.1 493.598C1045.54 493.598 1041.81 497.32 1041.81 501.888C1041.81 506.456 1045.54 510.178 1050.1 510.178C1054.7 510.178 1058.4 506.484 1058.4 501.888ZM1058.4 551.486C1058.4 546.918 1054.67 543.196 1050.1 543.196C1045.54 543.196 1041.81 546.918 1041.81 551.486C1041.81 556.054 1045.54 559.776 1050.1 559.776C1054.7 559.776 1058.4 556.082 1058.4 551.486ZM1058.4 601.084C1058.4 596.516 1054.67 592.794 1050.1 592.794C1045.54 592.794 1041.81 596.516 1041.81 601.084C1041.81 605.652 1045.54 609.374 1050.1 609.374C1054.7 609.402 1058.4 605.68 1058.4 601.084ZM1058.4 650.71C1058.4 646.142 1054.67 642.42 1050.1 642.42C1045.54 642.42 1041.81 646.142 1041.81 650.71C1041.81 655.278 1045.54 659 1050.1 659C1054.7 659 1058.4 655.278 1058.4 650.71ZM1008.79 452.29C1008.79 447.722 1005.07 444 1000.5 444C995.932 444 992.209 447.722 992.209 452.29C992.209 456.858 995.932 460.58 1000.5 460.58C1005.07 460.58 1008.79 456.858 1008.79 452.29ZM1008.79 501.888C1008.79 497.32 1005.07 493.598 1000.5 493.598C995.932 493.598 992.209 497.32 992.209 501.888C992.209 506.456 995.932 510.178 1000.5 510.178C1005.07 510.178 1008.79 506.484 1008.79 501.888ZM1008.79 551.486C1008.79 546.918 1005.07 543.196 1000.5 543.196C995.932 543.196 992.209 546.918 992.209 551.486C992.209 556.054 995.932 559.776 1000.5 559.776C1005.07 559.776 1008.79 556.082 1008.79 551.486ZM1008.79 601.084C1008.79 596.516 1005.07 592.794 1000.5 592.794C995.932 592.794 992.209 596.516 992.209 601.084C992.209 605.652 995.932 609.374 1000.5 609.374C1005.07 609.374 1008.79 605.68 1008.79 601.084ZM1008.79 650.71C1008.79 646.142 1005.07 642.42 1000.5 642.42C995.932 642.42 992.209 646.142 992.209 650.71C992.209 655.278 995.932 659 1000.5 659C1005.07 659 1008.79 655.278 1008.79 650.71ZM959.186 452.29C959.186 447.722 955.464 444 950.895 444C946.327 444 942.605 447.722 942.605 452.29C942.605 456.858 946.327 460.58 950.895 460.58C955.464 460.58 959.186 456.858 959.186 452.29ZM959.186 501.888C959.186 497.32 955.464 493.598 950.895 493.598C946.327 493.598 942.605 497.32 942.605 501.888C942.605 506.456 946.327 510.178 950.895 510.178C955.464 510.178 959.186 506.484 959.186 501.888ZM959.186 551.486C959.186 546.918 955.464 543.196 950.895 543.196C946.327 543.196 942.605 546.918 942.605 551.486C942.605 556.054 946.327 559.776 950.895 559.776C955.464 559.776 959.186 556.082 959.186 551.486ZM959.186 601.084C959.186 596.516 955.464 592.794 950.895 592.794C946.327 592.794 942.605 596.516 942.605 601.084C942.605 605.652 946.327 609.374 950.895 609.374C955.464 609.402 959.186 605.68 959.186 601.084ZM959.186 650.71C959.186 646.142 955.464 642.42 950.895 642.42C946.327 642.42 942.605 646.142 942.605 650.71C942.605 655.278 946.327 659 950.895 659C955.464 659 959.186 655.278 959.186 650.71ZM909.582 452.29C909.582 447.722 905.859 444 901.291 444C896.722 444 893 447.722 893 452.29C893 456.858 896.722 460.58 901.291 460.58C905.859 460.58 909.582 456.858 909.582 452.29ZM909.582 501.888C909.582 497.32 905.859 493.598 901.291 493.598C896.722 493.598 893 497.32 893 501.888C893 506.456 896.722 510.178 901.291 510.178C905.859 510.178 909.582 506.484 909.582 501.888ZM909.582 551.486C909.582 546.918 905.859 543.196 901.291 543.196C896.722 543.196 893 546.918 893 551.486C893 556.054 896.722 559.776 901.291 559.776C905.859 559.776 909.582 556.082 909.582 551.486ZM909.582 601.084C909.582 596.516 905.859 592.794 901.291 592.794C896.722 592.794 893 596.516 893 601.084C893 605.652 896.722 609.374 901.291 609.374C905.859 609.402 909.582 605.68 909.582 601.084ZM909.582 650.71C909.582 646.142 905.859 642.42 901.291 642.42C896.722 642.42 893 646.142 893 650.71C893 655.278 896.722 659 901.291 659C905.859 659 909.582 655.278 909.582 650.71Z" fill="url(#paint9_linear_716_17)"/>
<path d="M1099.71 460.58C1095.14 460.58 1091.42 456.858 1091.42 452.29C1091.42 447.722 1095.14 444 1099.71 444C1104.28 444 1108 447.722 1108 452.29C1108 456.858 1104.31 460.58 1099.71 460.58ZM1108 501.888C1108 497.32 1104.28 493.598 1099.71 493.598C1095.14 493.598 1091.42 497.32 1091.42 501.888C1091.42 506.456 1095.14 510.178 1099.71 510.178C1104.31 510.178 1108 506.484 1108 501.888ZM1108 551.486C1108 546.918 1104.28 543.196 1099.71 543.196C1095.14 543.196 1091.42 546.918 1091.42 551.486C1091.42 556.054 1095.14 559.776 1099.71 559.776C1104.31 559.776 1108 556.082 1108 551.486ZM1108 601.084C1108 596.516 1104.28 592.794 1099.71 592.794C1095.14 592.794 1091.42 596.516 1091.42 601.084C1091.42 605.652 1095.14 609.374 1099.71 609.374C1104.31 609.402 1108 605.68 1108 601.084ZM1108 650.71C1108 646.142 1104.28 642.42 1099.71 642.42C1095.14 642.42 1091.42 646.142 1091.42 650.71C1091.42 655.278 1095.14 659 1099.71 659C1104.31 659 1108 655.278 1108 650.71ZM1058.4 452.29C1058.4 447.722 1054.67 444 1050.1 444C1045.54 444 1041.81 447.722 1041.81 452.29C1041.81 456.858 1045.54 460.58 1050.1 460.58C1054.7 460.58 1058.4 456.858 1058.4 452.29ZM1058.4 501.888C1058.4 497.32 1054.67 493.598 1050.1 493.598C1045.54 493.598 1041.81 497.32 1041.81 501.888C1041.81 506.456 1045.54 510.178 1050.1 510.178C1054.7 510.178 1058.4 506.484 1058.4 501.888ZM1058.4 551.486C1058.4 546.918 1054.67 543.196 1050.1 543.196C1045.54 543.196 1041.81 546.918 1041.81 551.486C1041.81 556.054 1045.54 559.776 1050.1 559.776C1054.7 559.776 1058.4 556.082 1058.4 551.486ZM1058.4 601.084C1058.4 596.516 1054.67 592.794 1050.1 592.794C1045.54 592.794 1041.81 596.516 1041.81 601.084C1041.81 605.652 1045.54 609.374 1050.1 609.374C1054.7 609.402 1058.4 605.68 1058.4 601.084ZM1058.4 650.71C1058.4 646.142 1054.67 642.42 1050.1 642.42C1045.54 642.42 1041.81 646.142 1041.81 650.71C1041.81 655.278 1045.54 659 1050.1 659C1054.7 659 1058.4 655.278 1058.4 650.71ZM1008.79 452.29C1008.79 447.722 1005.07 444 1000.5 444C995.932 444 992.209 447.722 992.209 452.29C992.209 456.858 995.932 460.58 1000.5 460.58C1005.07 460.58 1008.79 456.858 1008.79 452.29ZM1008.79 501.888C1008.79 497.32 1005.07 493.598 1000.5 493.598C995.932 493.598 992.209 497.32 992.209 501.888C992.209 506.456 995.932 510.178 1000.5 510.178C1005.07 510.178 1008.79 506.484 1008.79 501.888ZM1008.79 551.486C1008.79 546.918 1005.07 543.196 1000.5 543.196C995.932 543.196 992.209 546.918 992.209 551.486C992.209 556.054 995.932 559.776 1000.5 559.776C1005.07 559.776 1008.79 556.082 1008.79 551.486ZM1008.79 601.084C1008.79 596.516 1005.07 592.794 1000.5 592.794C995.932 592.794 992.209 596.516 992.209 601.084C992.209 605.652 995.932 609.374 1000.5 609.374C1005.07 609.374 1008.79 605.68 1008.79 601.084ZM1008.79 650.71C1008.79 646.142 1005.07 642.42 1000.5 642.42C995.932 642.42 992.209 646.142 992.209 650.71C992.209 655.278 995.932 659 1000.5 659C1005.07 659 1008.79 655.278 1008.79 650.71ZM959.186 452.29C959.186 447.722 955.464 444 950.895 444C946.327 444 942.605 447.722 942.605 452.29C942.605 456.858 946.327 460.58 950.895 460.58C955.464 460.58 959.186 456.858 959.186 452.29ZM959.186 501.888C959.186 497.32 955.464 493.598 950.895 493.598C946.327 493.598 942.605 497.32 942.605 501.888C942.605 506.456 946.327 510.178 950.895 510.178C955.464 510.178 959.186 506.484 959.186 501.888ZM959.186 551.486C959.186 546.918 955.464 543.196 950.895 543.196C946.327 543.196 942.605 546.918 942.605 551.486C942.605 556.054 946.327 559.776 950.895 559.776C955.464 559.776 959.186 556.082 959.186 551.486ZM959.186 601.084C959.186 596.516 955.464 592.794 950.895 592.794C946.327 592.794 942.605 596.516 942.605 601.084C942.605 605.652 946.327 609.374 950.895 609.374C955.464 609.402 959.186 605.68 959.186 601.084ZM959.186 650.71C959.186 646.142 955.464 642.42 950.895 642.42C946.327 642.42 942.605 646.142 942.605 650.71C942.605 655.278 946.327 659 950.895 659C955.464 659 959.186 655.278 959.186 650.71ZM909.582 452.29C909.582 447.722 905.859 444 901.291 444C896.722 444 893 447.722 893 452.29C893 456.858 896.722 460.58 901.291 460.58C905.859 460.58 909.582 456.858 909.582 452.29ZM909.582 501.888C909.582 497.32 905.859 493.598 901.291 493.598C896.722 493.598 893 497.32 893 501.888C893 506.456 896.722 510.178 901.291 510.178C905.859 510.178 909.582 506.484 909.582 501.888ZM909.582 551.486C909.582 546.918 905.859 543.196 901.291 543.196C896.722 543.196 893 546.918 893 551.486C893 556.054 896.722 559.776 901.291 559.776C905.859 559.776 909.582 556.082 909.582 551.486ZM909.582 601.084C909.582 596.516 905.859 592.794 901.291 592.794C896.722 592.794 893 596.516 893 601.084C893 605.652 896.722 609.374 901.291 609.374C905.859 609.402 909.582 605.68 909.582 601.084ZM909.582 650.71C909.582 646.142 905.859 642.42 901.291 642.42C896.722 642.42 893 646.142 893 650.71C893 655.278 896.722 659 901.291 659C905.859 659 909.582 655.278 909.582 650.71Z" fill="url(#paint10_linear_716_17)"/>
</g>
<path opacity="0.1" d="M1414.5 0C1396.56 0 1382 14.5551 1382 32.5C1382 50.4449 1396.56 65 1414.5 65C1432.44 65 1447 50.4449 1447 32.5C1447 14.5551 1432.44 0 1414.5 0ZM1414.5 48.0127C1405.94 48.0127 1399.01 41.0798 1399.01 32.5191C1399.01 23.9585 1405.94 17.0256 1414.5 17.0256C1423.06 17.0256 1429.99 23.9585 1429.99 32.5191C1429.99 41.0798 1423.06 48.0127 1414.5 48.0127Z" fill="url(#paint11_linear_716_17)"/>
<g filter="url(#filter3_f_716_17)">
<circle cx="77" cy="538" r="61.5" stroke="url(#paint12_linear_716_17)" stroke-width="11"/>
</g>
<defs>
<filter id="filter0_f_716_17" x="484.251" y="198.015" width="577" height="564.514" filterUnits="userSpaceOnUse" color-interpolation-filters="sRGB">
<feFlood flood-opacity="0" result="BackgroundImageFix"/>
<feBlend mode="normal" in="SourceGraphic" in2="BackgroundImageFix" result="shape"/>
<feGaussianBlur stdDeviation="10" result="effect1_foregroundBlur_716_17"/>
</filter>
<filter id="filter1_f_716_17" x="1195" y="243" width="65.1794" height="65.1794" filterUnits="userSpaceOnUse" color-interpolation-filters="sRGB">
<feFlood flood-opacity="0" result="BackgroundImageFix"/>
<feBlend mode="normal" in="SourceGraphic" in2="BackgroundImageFix" result="shape"/>
<feGaussianBlur stdDeviation="3" result="effect1_foregroundBlur_716_17"/>
</filter>
<filter id="filter2_f_716_17" x="622.031" y="640.087" width="65.5439" height="65.5129" filterUnits="userSpaceOnUse" color-interpolation-filters="sRGB">
<feFlood flood-opacity="0" result="BackgroundImageFix"/>
<feBlend mode="normal" in="SourceGraphic" in2="BackgroundImageFix" result="shape"/>
<feGaussianBlur stdDeviation="2" result="effect1_foregroundBlur_716_17"/>
</filter>
<filter id="filter3_f_716_17" x="0" y="461" width="154" height="154" filterUnits="userSpaceOnUse" color-interpolation-filters="sRGB">
<feFlood flood-opacity="0" result="BackgroundImageFix"/>
<feBlend mode="normal" in="SourceGraphic" in2="BackgroundImageFix" result="shape"/>
<feGaussianBlur stdDeviation="5" result="effect1_foregroundBlur_716_17"/>
</filter>
<linearGradient id="paint0_linear_716_17" x1="870.27" y1="670.351" x2="593.459" y2="190.901" gradientUnits="userSpaceOnUse">
<stop stop-color="#FFE500"/>
<stop offset="1" stop-color="#F9D423"/>
</linearGradient>
<linearGradient id="paint1_linear_716_17" x1="1237.32" y1="258.733" x2="1217.86" y2="292.447" gradientUnits="userSpaceOnUse">
<stop stop-color="#BA9BFF"/>
<stop offset="1" stop-color="#E18DFF"/>
</linearGradient>
<linearGradient id="paint2_linear_716_17" x1="647.056" y1="680.544" x2="683.544" y2="644.056" gradientUnits="userSpaceOnUse">
<stop stop-color="#BA9BFF"/>
<stop offset="1" stop-color="#E18DFF"/>
</linearGradient>
<linearGradient id="paint3_linear_716_17" x1="245" y1="845.5" x2="48" y2="845.5" gradientUnits="userSpaceOnUse">
<stop stop-color="#63B4FF"/>
<stop offset="1" stop-color="white" stop-opacity="0"/>
</linearGradient>
<linearGradient id="paint4_linear_716_17" x1="245" y1="845.5" x2="48" y2="845.5" gradientUnits="userSpaceOnUse">
<stop stop-color="#63B4FF"/>
<stop offset="1" stop-color="white" stop-opacity="0"/>
</linearGradient>
<linearGradient id="paint5_linear_716_17" x1="322" y1="121.5" x2="537" y2="121.5" gradientUnits="userSpaceOnUse">
<stop stop-color="#FDFBFB"/>
<stop offset="1" stop-color="#EBEDEE"/>
</linearGradient>
<linearGradient id="paint6_linear_716_17" x1="322" y1="121.5" x2="537" y2="121.5" gradientUnits="userSpaceOnUse">
<stop stop-color="#FDFBFB"/>
<stop offset="1" stop-color="#EBEDEE"/>
</linearGradient>
<linearGradient id="paint7_linear_716_17" x1="1158" y1="825" x2="1352.45" y2="684.584" gradientUnits="userSpaceOnUse">
<stop offset="0.0169155" stop-color="#B8B8B8"/>
<stop offset="1" stop-color="#D2C3E0"/>
</linearGradient>
<linearGradient id="paint8_linear_716_17" x1="1158" y1="825" x2="1352.45" y2="684.584" gradientUnits="userSpaceOnUse">
<stop offset="0.0169155" stop-color="#B8B8B8"/>
<stop offset="1" stop-color="#D2C3E0"/>
</linearGradient>
<linearGradient id="paint9_linear_716_17" x1="916.927" y1="473.675" x2="1057.52" y2="585.927" gradientUnits="userSpaceOnUse">
<stop stop-color="white"/>
<stop offset="1" stop-color="#C6C6C6"/>
</linearGradient>
<linearGradient id="paint10_linear_716_17" x1="916.927" y1="473.675" x2="1057.52" y2="585.927" gradientUnits="userSpaceOnUse">
<stop stop-color="white"/>
<stop offset="1" stop-color="#C6C6C6"/>
</linearGradient>
<linearGradient id="paint11_linear_716_17" x1="1384.78" y1="54.5949" x2="1414.36" y2="20.4058" gradientUnits="userSpaceOnUse">
<stop offset="0.0169155" stop-color="#667EEA"/>
<stop offset="1" stop-color="#764BA2"/>
</linearGradient>
<linearGradient id="paint12_linear_716_17" x1="15.7251" y1="583.549" x2="76.7208" y2="513.067" gradientUnits="userSpaceOnUse">
<stop offset="0.0169155" stop-color="#667EEA"/>
<stop offset="1" stop-color="#764BA2"/>
</linearGradient>
</defs>
</svg>
